<svg enable-background="new 0 0 512 512" height="512" viewBox="0 0 512 512" width="512" xmlns="http://www.w3.org/2000/svg"><path d="m343.158 24.759.009-.74c-.096 0-.191-.004-.287-.004-1.318 0-2.604.116-3.867.312-2.013.108-3.984.665-5.931 1.68-14.695 6.03-26.281 25.28-40.275 48.589-20.493 34.142-45.993 76.629-89.724 87.313-17.25 4.208-37.639 28.647-57.046 53.32-1.771 2.245-3.402 4.316-4.857 6.138l-.482.599-140.198 57.984 113.657 80.011c47.719-22.41 62.32 20.51 101.834 128.024 79.515-8.925 132.87-136.009 177.182-144.359 54.955-10.351 59.563 31.729 118.327 67.983-59.051-127.745-121.725-374.94-168.342-386.85zm-171.139 291.554-56.789 28.785-88.381-62.224 119.141-49.274 23.125 17.184 35.397 26.847c-9.892 13.701-20.667 26.734-32.493 38.682zm40.059-49.516-35.264-26.206-21.595-16.381c.283-.357.565-.72.856-1.085 12.451-15.832 35.63-45.291 50.04-48.81 40.188-9.817 65.588-41.959 85.416-73.182-19.113 48.174-42.821 111.217-79.453 165.664z"/></svg>